<svg width="180" height="180" viewBox="0 0 180 180" fill="none" xmlns="http://www.w3.org/2000/svg">
  <defs>
    <linearGradient id="background-gradient" x1="0" y1="180" x2="180" y2="0" gradientUnits="userSpaceOnUse">
      <stop stop-color="#2AF598" />
      <stop offset="1" stop-color="#009EFD" />
    </linearGradient>
  </defs>
  <rect width="180" height="180" rx="40" fill="url(#background-gradient)" />
  <g fill="white" transform="translate(20, 20) scale(0.75)">
    <!-- Top bar -->
    <rect x="25" y="33" width="130" height="8" rx="4" />
    <!-- 20 Dots Grid -->
    <!-- Columns 3, 4, 5 -->
    <circle cx="90" cy="57" r="6.5" />
    <circle cx="110" cy="57" r="6.5" />
    <circle cx="130" cy="57" r="6.5" />
    <circle cx="90" cy="77" r="6.5" />
    <circle cx="110" cy="77" r="6.5" />
    <circle cx="130" cy="77" r="6.5" />
    <circle cx="90" cy="97" r="6.5" />
    <circle cx="110" cy="97" r="6.5" />
    <circle cx="130" cy="97" r="6.5" />
    <circle cx="90" cy="117" r="6.5" />
    <circle cx="110" cy="117" r="6.5" />
    <circle cx="130" cy="117" r="6.5" />
    <!-- Columns 1, 2 (shifted down) -->
    <circle cx="50" cy="77" r="6.5" />
    <circle cx="70" cy="77" r="6.5" />
    <circle cx="50" cy="97" r="6.5" />
    <circle cx="70" cy="97" r="6.5" />
    <circle cx="50" cy="117" r="6.5" />
    <circle cx="70" cy="117" r="6.5" />
    <circle cx="50" cy="137" r="6.5" />
    <circle cx="70" cy="137" r="6.5" />
  </g>
</svg>