<?xml version="1.0" encoding="UTF-8"?>
<svg xmlns="http://www.w3.org/2000/svg" width="400" height="400" viewBox="2874 660 460 460">
  <path fill-rule="nonzero" fill="rgb(71.348572%, 11.412048%, 13.85498%)" fill-opacity="1"
    d="M 3251.558594 1021.730469 C 3252.910156 1020.179688 3254.238281 1018.621094 3255.550781 1017.039062 C 3254.238281 1018.621094 3252.910156 1020.179688 3251.558594 1021.730469 Z M 3246.648438 1027.121094 C 3248.011719 1025.671875 3249.351562 1024.210938 3250.671875 1022.730469 C 3249.351562 1024.210938 3248.011719 1025.671875 3246.648438 1027.121094 Z M 3256.238281 1016.191406 C 3257.601562 1014.539062 3258.921875 1012.859375 3260.21875 1011.160156 C 3258.921875 1012.859375 3257.601562 1014.539062 3256.238281 1016.191406 Z M 3241.519531 1032.359375 C 3242.898438 1031 3244.25 1029.621094 3245.578125 1028.21875 C 3244.25 1029.621094 3242.898438 1031 3241.519531 1032.359375 Z M 3236.179688 1037.429688 C 3237.578125 1036.148438 3238.949219 1034.839844 3240.308594 1033.519531 C 3238.949219 1034.839844 3237.578125 1036.148438 3236.179688 1037.429688 Z M 3179.980469 1073.839844 C 3178.878906 1074.308594 3177.78125 1074.761719 3176.671875 1075.210938 C 3177.78125 1074.761719 3178.878906 1074.308594 3179.980469 1073.839844 Z M 3186.921875 1070.691406 C 3185.839844 1071.199219 3184.738281 1071.699219 3183.640625 1072.199219 C 3184.738281 1071.699219 3185.839844 1071.199219 3186.921875 1070.691406 Z M 3193.730469 1067.28125 C 3192.640625 1067.851562 3191.539062 1068.390625 3190.441406 1068.941406 C 3191.539062 1068.390625 3192.640625 1067.851562 3193.730469 1067.28125 Z M 3200.390625 1063.621094 C 3199.269531 1064.261719 3198.140625 1064.871094 3197.019531 1065.480469 C 3198.140625 1064.871094 3199.269531 1064.261719 3200.390625 1063.621094 Z M 3206.890625 1059.730469 C 3205.691406 1060.46875 3204.46875 1061.191406 3203.25 1061.910156 C 3204.46875 1061.191406 3205.691406 1060.480469 3206.890625 1059.730469 Z M 3223.828125 1047.851562 C 3218.800781 1051.769531 3213.578125 1055.449219 3208.179688 1058.878906 C 3213.578125 1055.449219 3218.800781 1051.769531 3223.828125 1047.851562 Z M 3229.339844 1043.398438 C 3227.878906 1044.621094 3226.410156 1045.839844 3224.921875 1047.019531 C 3226.410156 1045.839844 3227.878906 1044.621094 3229.339844 1043.398438 Z M 3234.878906 1038.589844 C 3233.480469 1039.851562 3232.078125 1041.101562 3230.640625 1042.320312 C 3232.078125 1041.101562 3233.480469 1039.851562 3234.878906 1038.589844 Z M 3264.679688 1005.121094 C 3263.378906 1006.949219 3262.050781 1008.761719 3260.691406 1010.550781 C 3262.050781 1008.761719 3263.378906 1006.949219 3264.679688 1005.121094 Z M 3146.03125 1060.078125 L 3144.351562 1071.871094 L 3137.269531 1086.859375 C 3125.238281 1089.121094 3112.851562 1090.351562 3100.171875 1090.351562 C 2988.898438 1090.351562 2898.691406 1000.140625 2898.691406 888.871094 C 2898.691406 777.601562 2988.898438 687.390625 3100.171875 687.390625 C 3211.449219 687.390625 3301.648438 777.601562 3301.648438 888.871094 C 3301.648438 932.050781 3288.03125 972.03125 3264.890625 1004.808594 C 3287.269531 973.078125 3300.710938 934.578125 3301.550781 892.980469 C 3295.050781 895.640625 3291.441406 897.839844 3291.441406 897.839844 C 3267.859375 907.378906 3233.609375 898.960938 3233.609375 898.960938 C 3208.339844 891.101562 3174.101562 892.21875 3174.101562 892.21875 C 3181.960938 894.460938 3191.5 917.480469 3191.5 917.480469 C 3181.960938 929.828125 3153.328125 929.269531 3153.328125 929.269531 C 3155.570312 941.621094 3121.890625 973.628906 3121.890625 973.628906 C 3122.238281 1006.898438 3151.679688 1048.921875 3174.160156 1076.230469 C 3170.890625 1077.519531 3167.589844 1078.761719 3164.230469 1079.890625 C 3155.199219 1070.210938 3146.03125 1060.078125 3146.03125 1060.078125 Z M 3154.121094 1082.949219 C 3155.121094 1082.671875 3156.140625 1082.398438 3157.128906 1082.109375 C 3156.140625 1082.410156 3155.121094 1082.671875 3154.121094 1082.949219 Z M 3146.070312 1085.011719 C 3147.410156 1084.699219 3148.75 1084.378906 3150.078125 1084.050781 C 3148.75 1084.390625 3147.410156 1084.699219 3146.070312 1085.011719 Z M 3138.25 1086.679688 C 3139.871094 1086.371094 3141.480469 1086.039062 3143.078125 1085.691406 C 3141.480469 1086.039062 3139.871094 1086.371094 3138.25 1086.679688 Z M 3100.171875 665.351562 C 2976.730469 665.351562 2876.660156 765.429688 2876.660156 888.871094 C 2876.660156 1012.308594 2976.730469 1112.390625 3100.171875 1112.390625 C 3223.621094 1112.390625 3323.691406 1012.308594 3323.691406 888.871094 C 3323.691406 765.429688 3223.621094 665.351562 3100.171875 665.351562 Z M 3029.820312 841.128906 C 3035.429688 813.058594 3105.050781 824.851562 3105.050781 824.851562 C 3096.070312 812.5 3063.5 806.890625 3063.5 806.890625 C 3016.339844 799.589844 3070.238281 753.550781 3070.238281 753.550781 C 3037.109375 759.171875 3019.710938 786.121094 3019.710938 786.121094 C 2991.640625 822.609375 3029.820312 841.128906 3029.820312 841.128906 Z M 3105.609375 903.449219 C 3098.789062 903.449219 3093.261719 897.921875 3093.261719 891.101562 C 3093.261719 884.269531 3098.789062 878.75 3105.609375 878.75 C 3112.429688 878.75 3117.960938 884.269531 3117.960938 891.101562 C 3117.960938 897.921875 3112.429688 903.449219 3105.609375 903.449219 Z M 3033.191406 962.960938 C 3028.839844 962.960938 3025.328125 959.441406 3025.328125 955.101562 C 3025.328125 950.761719 3028.839844 947.230469 3033.191406 947.230469 C 3037.53125 947.230469 3041.050781 950.761719 3041.050781 955.101562 C 3041.050781 959.441406 3037.53125 962.960938 3033.191406 962.960938 Z M 3142.660156 914.679688 C 3155.011719 927.589844 3178.589844 915.238281 3178.589844 915.238281 C 3162.871094 911.871094 3147.710938 883.238281 3147.710938 883.238281 C 3295.929688 895.03125 3208.910156 776.570312 3208.910156 776.570312 C 3223.511719 869.761719 3123.011719 843.941406 3123.011719 843.941406 C 3100.550781 825.410156 3068.558594 833.269531 3068.558594 833.269531 C 3036.550781 832.710938 3021.398438 888.851562 3021.398438 888.851562 C 3015.78125 902.320312 2984.339844 936.011719 2984.339844 936.011719 C 2979.289062 937.699219 2979.851562 941.621094 2979.851562 941.621094 C 3014.660156 1025.28125 3073.609375 956.21875 3073.609375 956.21875 C 3140.421875 978.679688 3142.660156 914.679688 3142.660156 914.679688 " />
</svg> 