<?xml version="1.0" encoding="UTF-8"?>
<svg width="400" height="400" viewBox="2338 1766 460 460" xmlns="http://www.w3.org/2000/svg">
  <path fill-rule="nonzero" fill="rgb(71.348572%, 11.412048%, 13.85498%)" fill-opacity="1"
    d="M 2709.101562 2137.601562 C 2704.820312 2136.820312 2700.25 2136.269531 2695.269531 2136.078125 C 2695.269531 2136.078125 2620.359375 2143.289062 2603.21875 2093.660156 L 2598.710938 2097.28125 C 2598.710938 2097.28125 2572.539062 2048.550781 2574.339844 2006.128906 L 2566.21875 2012.441406 L 2539.140625 2054.859375 C 2539.140625 2054.859375 2546.679688 2102.621094 2542.171875 2125.171875 C 2542.171875 2125.171875 2521.519531 2159.449219 2526.601562 2194.75 C 2532.761719 2195.941406 2539.03125 2196.851562 2545.390625 2197.46875 C 2443.269531 2187.648438 2363.429688 2101.640625 2363.429688 1996.949219 C 2363.429688 1885.679688 2453.628906 1795.46875 2564.910156 1795.46875 C 2676.179688 1795.46875 2766.378906 1885.679688 2766.378906 1996.949219 C 2766.378906 2051.691406 2744.519531 2101.300781 2709.101562 2137.601562 Z M 2698.511719 2147.699219 C 2702.148438 2144.46875 2705.691406 2141.109375 2709.089844 2137.621094 C 2705.679688 2141.109375 2702.160156 2144.46875 2698.511719 2147.699219 Z M 2547.171875 2197.601562 C 2549.761719 2197.839844 2552.359375 2198.050781 2554.980469 2198.179688 C 2552.359375 2198.050781 2549.761719 2197.839844 2547.171875 2197.601562 Z M 2564.910156 1773.441406 C 2441.460938 1773.441406 2341.390625 1873.511719 2341.390625 1996.949219 C 2341.390625 2120.398438 2441.460938 2220.46875 2564.910156 2220.46875 C 2688.351562 2220.46875 2788.421875 2120.398438 2788.421875 1996.949219 C 2788.421875 1873.511719 2688.351562 1773.441406 2564.910156 1773.441406 Z M 2522.960938 2064.910156 C 2517.289062 2082.851562 2500.699219 2086.269531 2500.699219 2086.269531 C 2504.460938 2091.640625 2503.011719 2122.398438 2503.011719 2122.398438 C 2515.28125 2121.671875 2520.058594 2095.410156 2520.058594 2095.410156 C 2523.28125 2099.71875 2524.800781 2118.738281 2524.800781 2118.738281 C 2538.769531 2111.75 2528.460938 2071.871094 2528.460938 2071.871094 Z M 2525.199219 1989.980469 C 2522.390625 1995.539062 2516.628906 1998.289062 2512.339844 1996.121094 C 2508.050781 1993.949219 2506.859375 1987.691406 2509.671875 1982.121094 C 2512.480469 1976.558594 2518.230469 1973.820312 2522.519531 1975.980469 C 2526.808594 1978.160156 2528.011719 1984.421875 2525.199219 1989.980469 Z M 2501.289062 2062.25 L 2496.039062 2071.550781 C 2494.449219 2074.359375 2491.050781 2075.03125 2488.679688 2073.699219 L 2488.691406 2073.710938 C 2486.328125 2072.378906 2483.328125 2071.5 2484.910156 2068.679688 C 2484.910156 2068.679688 2485.339844 2067.269531 2487.820312 2067.960938 C 2488.738281 2068.210938 2489.210938 2068.429688 2489.210938 2068.429688 L 2495.050781 2058.449219 C 2496.640625 2055.640625 2497.519531 2053.410156 2499.878906 2054.738281 C 2502.238281 2056.078125 2502.878906 2059.441406 2501.289062 2062.25 Z M 2557.621094 1842.179688 C 2500.75 1875.960938 2511.441406 1931.980469 2511.441406 1931.980469 C 2486.640625 1929.398438 2475.101562 1945.660156 2475.101562 1945.660156 C 2457.140625 1969.589844 2460.558594 2033.308594 2460.558594 2033.308594 C 2461.839844 2055.539062 2481.511719 2075.640625 2481.511719 2075.640625 C 2484.929688 2079.488281 2504.179688 2076.5 2504.179688 2076.5 C 2511.871094 2071.789062 2521.710938 2048.699219 2521.710938 2048.699219 C 2530.691406 2044.859375 2567.890625 1993.96875 2567.890625 1993.96875 L 2571.308594 1997.820312 C 2572.160156 1990.550781 2562.761719 1969.171875 2562.761719 1969.171875 C 2587.128906 1974.730469 2597.820312 1953.78125 2597.820312 1953.78125 C 2575.160156 1934.539062 2540.949219 1933.679688 2540.949219 1933.679688 C 2539.671875 1918.289062 2557.621094 1842.179688 2557.621094 1842.179688 Z M 2498.351562 1921.5 C 2490.949219 1902.589844 2505.320312 1833.421875 2505.320312 1833.421875 C 2456.148438 1867.289062 2470.148438 1938.351562 2470.148438 1938.351562 C 2473.328125 1931.769531 2498.351562 1921.5 2498.351562 1921.5 " />
</svg>