<?xml version="1.0" encoding="UTF-8"?>
<svg xmlns="http://www.w3.org/2000/svg" width="400" height="400" viewBox="2338 660 460 460">
  <path fill-rule="nonzero" fill="rgb(71.348572%, 11.412048%, 13.85498%)" fill-opacity="1"
    d="M 2498.46875 940.890625 C 2498.359375 946.398438 2494.371094 950.78125 2489.550781 950.679688 C 2484.730469 950.578125 2480.921875 946.039062 2481.03125 940.539062 C 2481.140625 935.03125 2485.140625 930.648438 2489.960938 930.738281 C 2494.769531 930.839844 2498.589844 935.378906 2498.46875 940.890625 Z M 2550.210938 850.859375 C 2546.308594 856.089844 2541.230469 858.898438 2538.859375 857.128906 C 2536.488281 855.371094 2537.730469 849.699219 2541.628906 844.46875 C 2545.519531 839.230469 2550.601562 836.429688 2552.980469 838.191406 C 2555.339844 839.960938 2554.109375 845.628906 2550.210938 850.859375 Z M 2715.328125 989.558594 L 2722.808594 985.078125 C 2688.910156 980.589844 2657.5 1001.03125 2657.5 1001.03125 L 2653.511719 1000.039062 L 2647.53125 996.050781 C 2658 1025.460938 2636.28125 1046.988281 2636.28125 1046.988281 C 2618.441406 1041.351562 2600.789062 984.730469 2600.789062 984.730469 C 2591.320312 990.738281 2595.191406 1014.988281 2595.191406 1014.988281 C 2577.710938 999.289062 2575.550781 978.910156 2578.160156 953.488281 C 2578.71875 948.050781 2579.160156 940.558594 2581.078125 935.96875 C 2596.671875 898.71875 2596.71875 885.089844 2596.71875 885.089844 C 2601.199219 796.359375 2544.839844 796.140625 2544.839844 796.140625 C 2542.429688 787.179688 2535.019531 780.609375 2530.671875 777.398438 C 2528.730469 775.96875 2527.390625 775.210938 2527.390625 775.210938 C 2515.828125 772.789062 2506.171875 773.53125 2498.199219 775.898438 C 2476.628906 782.300781 2467.570312 800.628906 2467.570312 800.628906 C 2474.050781 799.628906 2480.53125 799.140625 2480.53125 799.140625 C 2458.589844 805.621094 2453.109375 832.53125 2453.109375 832.53125 C 2477.539062 805.121094 2511.441406 808.109375 2511.441406 808.109375 C 2454.109375 812.601562 2468.570312 894.351562 2468.570312 894.351562 C 2470.558594 898.339844 2467.570312 902.320312 2467.570312 902.320312 C 2447.128906 914.289062 2450.621094 929.738281 2450.621094 929.738281 C 2442.648438 965.640625 2479.039062 975.609375 2479.039062 975.609375 C 2524.398438 976.601562 2520.910156 922.761719 2520.910156 922.761719 C 2541.351562 919.78125 2571.761719 900.828125 2571.761719 900.828125 C 2564.28125 919.78125 2533.371094 925.75 2533.371094 925.75 C 2517.421875 967.128906 2519.421875 1055.871094 2519.421875 1055.871094 C 2522.710938 1068.21875 2526.820312 1078.648438 2531.398438 1087.46875 C 2436.089844 1071.511719 2363.429688 988.71875 2363.429688 888.871094 C 2363.429688 777.601562 2453.628906 687.390625 2564.910156 687.390625 C 2676.179688 687.390625 2766.378906 777.601562 2766.378906 888.871094 C 2766.378906 927.089844 2755.738281 962.820312 2737.269531 993.261719 C 2725.421875 989.070312 2715.328125 989.558594 2715.328125 989.558594 Z M 2564.910156 665.351562 C 2441.460938 665.351562 2341.390625 765.429688 2341.390625 888.871094 C 2341.390625 1012.308594 2441.460938 1112.390625 2564.910156 1112.390625 C 2688.351562 1112.390625 2788.421875 1012.308594 2788.421875 888.871094 C 2788.421875 765.429688 2688.351562 665.351562 2564.910156 665.351562 Z M 2587.929688 759.25 C 2587.929688 759.25 2590.128906 727 2580.480469 726.128906 C 2580.480469 726.128906 2568.851562 723.058594 2541 782.5 L 2546.480469 791.050781 L 2558.101562 791.699219 C 2558.101562 791.699219 2560.960938 791.269531 2559.421875 788.628906 C 2559.421875 788.628906 2557.230469 774.601562 2570.828125 762.980469 C 2570.828125 762.980469 2578.941406 753.539062 2576.96875 766.921875 C 2576.96875 766.921875 2577.628906 781.179688 2566.878906 791.488281 C 2566.878906 791.488281 2562.710938 794.769531 2567.320312 794.339844 C 2567.320312 794.339844 2583.328125 787.539062 2588.808594 772.410156 C 2588.808594 772.410156 2593.199219 760.78125 2587.929688 759.25 Z M 2614.621094 942.160156 C 2614.621094 906.390625 2602.828125 889.078125 2602.828125 889.078125 L 2602.480469 888.039062 C 2604.21875 923.769531 2589.75 926.609375 2589.449219 949.089844 C 2589.210938 966.550781 2590.339844 980.660156 2590.339844 980.660156 C 2590.691406 969.558594 2608.03125 953.601562 2608.03125 953.601562 C 2602.480469 991.410156 2632.660156 1033.050781 2632.660156 1033.050781 C 2660.421875 998.371094 2621.910156 957.78125 2621.910156 957.78125 C 2612.890625 949.101562 2614.621094 943.550781 2614.621094 942.160156 Z M 2514.898438 762.320312 C 2514.898438 762.320312 2509.199219 741.039062 2492.96875 725.691406 C 2492.96875 725.691406 2488.800781 721.089844 2487.488281 736.648438 C 2487.488281 736.648438 2485.75 756.601562 2487.21875 767.621094 C 2487.699219 771.269531 2488.539062 773.941406 2489.898438 774.589844 C 2489.898438 774.589844 2491.179688 773.96875 2493.210938 773.089844 C 2499.289062 770.449219 2512.121094 765.5 2518.191406 767.800781 C 2518.191406 767.800781 2517.089844 763.191406 2514.898438 762.320312 " />
</svg>