<svg xmlns="http://www.w3.org/2000/svg" width="400" height="400" viewBox="2874 112 460 460"><path fill="#B61D23" d="M3284.09 424.05c1.25-2.788 2.46-5.609 3.59-8.48-1.121 2.871-2.34 5.692-3.59 8.48Zm-9.512 18.65Zm4.352-7.97Zm4.148-8.492Zm-26.039 42.012c-23.617.352-48.84 5.73-55.277 25.86 0 0-1.371 9.242 1.789 20.628a200.082 200.082 0 0 1-61.54 24.16c23.317-20.078 49.91-52.488 56.528-99.07 0 0 20.422 10.223 25.262 17.203 0 0 18.687-14.41 45.59-5.89-3.832 5.918-7.942 11.64-12.352 17.109Zm-241.867-137s-10.602 12.262-20.871 14.898c0 0-6.301-3.968-.992-6.289 0 0 9.941-5.629 12.91-9.27Zm15.887-27.16a6.28 6.28 0 0 1-6.29 6.289 6.287 6.287 0 0 1-6.289-6.29c0-3.468 2.82-6.288 6.29-6.288 3.48 0 6.289 2.82 6.289 6.289Zm68.23-10.27c-22.187-18.539-30.8 8.621-30.8 8.621-2.34-20.453.831-29.82 6.96-32.8 32.34-15.672 36.43 19.879 36.43 19.879 6.621 33.12-25.168 37.09-25.168 37.09 19.867-15.231 12.578-32.79 12.578-32.79Zm-18.098 248.61a200.072 200.072 0 0 1-80.312-25.27c2.582-4.012 4.86-6.3 4.86-6.3 6.03-1.098 4.66-6.032 4.66-6.032l-1.098-16.45c-2.192-9.589-14.25-9.32-14.25-9.32l-32.61 7.68c-.66.082-1.27.192-1.89.293-38.121-36.64-61.86-88.11-61.86-145.16 0-111.27 90.207-201.48 201.48-201.48 76.34 0 142.708 42.488 176.888 105.078-11.34 21.742-19.008 55.18 2.09 97.101 0 0 8.57 17.121 19.742 32.309-.891 5.36-1.98 10.64-3.282 15.84-29.289-33.23-73.46-65.09-139.53-79.86l-17.72-16.66s-9.14-110.16-109.64-61.258c0 0-42.45 27.938-31.7 82.758 0 0-22.578 4.832-11.828 32.242 0 0-28.48 42.989 15.047 52.118l47.293-36.528-36.543 45.13s62.34 20.429 70.403-34.391c0 0 26.859 5.91 44.597-25.79 0 0 20.492 7.399 31.172 30.63 15.16 32.96 12.88 92.44-75.969 163.32Zm-87.84-29.79c.66.41 1.297.84 1.97 1.239-.673-.399-1.31-.828-1.97-1.238Zm-5.863-3.82c.801.54 1.59 1.09 2.39 1.621-.8-.53-1.589-1.082-2.39-1.62Zm-5.52-3.87c.872.628 1.731 1.269 2.61 1.89-.879-.621-1.738-1.262-2.61-1.89Zm-5.327-4c.918.71 1.84 1.44 2.77 2.14-.93-.7-1.852-1.43-2.77-2.14Zm-5.153-4.141c.961.793 1.91 1.59 2.883 2.382-.973-.793-1.922-1.59-2.883-2.382Zm-5.008-4.297Zm-4.832-4.442c1.024.97 2.051 1.942 3.09 2.88-1.039-.938-2.066-1.91-3.09-2.88Zm336.68-182.36c-1.09-3.73-1.93-7.608-2.418-11.53.918 3.8 1.719 7.648 2.418 11.53Zm1.434 8.868a209.72 209.72 0 0 0-1.274-8.058c.473 2.671.91 5.351 1.274 8.058Zm-199.59-196.219c-123.442 0-223.512 100.07-223.512 223.512 0 123.45 100.07 223.52 223.512 223.52 123.45 0 223.52-100.07 223.52-223.52 0-123.441-100.07-223.512-223.52-223.512Zm42.476 269.891c-58.039 100.488-126.289 89.191-126.289 89.191l2.153 26.88c8.597 10.21 25.258 9.679 25.258 9.679 118.23-30.102 98.878-125.75 98.878-125.75"/></svg>