<?xml version="1.0" encoding="UTF-8"?>
<svg xmlns="http://www.w3.org/2000/svg" width="400" height="400" viewBox="3400 660 460 460">
  <path fill-rule="nonzero" fill="rgb(71.348572%, 11.412048%, 13.85498%)" fill-opacity="1"
    d="M 3586.078125 996.351562 C 3583.890625 997.128906 3581.710938 997.738281 3579.53125 998.21875 C 3579.308594 997.988281 3579.121094 997.75 3578.96875 997.5 C 3578.238281 996.28125 3579.640625 994.949219 3586.078125 996.351562 Z M 3593.921875 1002.519531 C 3590.929688 1004.769531 3584.390625 1008 3570.070312 1011.148438 C 3563.550781 1012.589844 3554.949219 1013.21875 3554.949219 1013.21875 C 3554.949219 1013.21875 3535.671875 1012.890625 3528.578125 1011.441406 C 3524.699219 1010.648438 3504.140625 1003.511719 3509.871094 990.550781 C 3510.570312 988.960938 3514.460938 988.808594 3519.730469 989.578125 C 3532.871094 991.511719 3554.609375 999.148438 3557.019531 1004.410156 C 3557.21875 1004.820312 3557.25 1005.238281 3557.230469 1005.628906 C 3558.699219 1005.878906 3560.140625 1006.070312 3561.570312 1006.21875 C 3573.75 1007.519531 3584.671875 1005.679688 3593.921875 1002.519531 Z M 3662.949219 907.328125 C 3657.539062 914.5 3650.351562 918.191406 3646.871094 915.570312 C 3643.398438 912.949219 3644.96875 905.011719 3650.371094 897.839844 C 3655.769531 890.671875 3662.96875 886.980469 3666.449219 889.601562 C 3669.921875 892.21875 3668.359375 900.148438 3662.949219 907.328125 Z M 3739.609375 837.761719 C 3751.480469 836.230469 3752.628906 831.628906 3752.628906 831.628906 C 3728.128906 817.46875 3678.75 824.738281 3678.75 824.738281 C 3704.011719 801.390625 3694.058594 752.398438 3694.058594 752.398438 C 3657.320312 779.191406 3646.980469 836.230469 3646.980469 836.230469 C 3580 839.671875 3570.050781 922.351562 3570.050781 922.351562 L 3538.28125 964.070312 C 3531.289062 962.601562 3516.921875 975.578125 3515.800781 976.609375 C 3515.761719 976.648438 3515.699219 976.710938 3515.699219 976.710938 C 3515.699219 976.710938 3511.328125 977.960938 3508.050781 980.421875 C 3506.730469 981.410156 3505.589844 982.601562 3504.980469 983.980469 C 3502.851562 988.800781 3506.128906 999.289062 3506.128906 999.289062 C 3516.460938 1024.171875 3566.839844 1015.539062 3570.429688 1014.980469 C 3574.019531 1014.421875 3601.589844 1003.671875 3601.589844 1003.671875 C 3751.089844 981.679688 3715.949219 884.328125 3715.949219 884.328125 C 3755.71875 980.671875 3643.230469 1002.429688 3643.230469 1002.429688 L 3681.140625 1006.148438 L 3637.011719 1089.441406 L 3668.011719 1070.101562 L 3676.058594 1084.601562 C 3660.78125 1088.320312 3644.828125 1090.351562 3628.390625 1090.351562 C 3517.121094 1090.351562 3426.910156 1000.140625 3426.910156 888.871094 C 3426.910156 777.601562 3517.121094 687.390625 3628.390625 687.390625 C 3739.671875 687.390625 3829.878906 777.601562 3829.878906 888.871094 C 3829.878906 889.289062 3829.839844 889.699219 3829.839844 890.121094 C 3829.839844 890.03125 3829.851562 889.941406 3829.851562 889.851562 C 3791.199219 860.320312 3739.609375 837.761719 3739.609375 837.761719 Z M 3794.800781 1002.449219 C 3792.019531 1006.519531 3789.039062 1010.429688 3785.96875 1014.269531 C 3774.621094 1002.449219 3772.890625 985.890625 3772.890625 985.890625 C 3794.328125 926.949219 3821.878906 937.660156 3821.878906 937.660156 C 3780.589844 963.089844 3789.109375 991.320312 3794.800781 1002.449219 Z M 3771.601562 1030.5 L 3766.011719 1025.980469 L 3755.640625 1032.738281 L 3750.871094 1048.808594 C 3731.179688 1063.910156 3708.621094 1075.429688 3684.148438 1082.46875 L 3725.039062 1009.628906 L 3746.46875 1008.480469 L 3777.839844 1023.96875 C 3775.820312 1026.199219 3773.730469 1028.359375 3771.601562 1030.5 Z M 3750.878906 1048.789062 C 3754.089844 1046.328125 3757.21875 1043.761719 3760.269531 1041.121094 C 3757.21875 1043.769531 3754.089844 1046.328125 3750.878906 1048.789062 Z M 3676.890625 1084.398438 C 3679.320312 1083.800781 3681.738281 1083.160156 3684.140625 1082.46875 C 3681.738281 1083.160156 3679.320312 1083.800781 3676.890625 1084.398438 Z M 3628.390625 665.351562 C 3504.949219 665.351562 3404.878906 765.429688 3404.878906 888.871094 C 3404.878906 1012.308594 3504.949219 1112.390625 3628.390625 1112.390625 C 3751.839844 1112.390625 3851.910156 1012.308594 3851.910156 888.871094 C 3851.910156 765.429688 3751.839844 665.351562 3628.390625 665.351562 Z M 3538.191406 1000.609375 C 3535.800781 1000.609375 3533.871094 1002.539062 3533.871094 1004.929688 C 3533.871094 1007.308594 3535.800781 1009.238281 3538.191406 1009.238281 C 3540.570312 1009.238281 3542.511719 1007.308594 3542.511719 1004.929688 C 3542.511719 1002.539062 3540.570312 1000.609375 3538.191406 1000.609375 Z M 3522.289062 995.769531 C 3519.910156 995.769531 3517.980469 997.699219 3517.980469 1000.089844 C 3517.980469 1002.46875 3519.910156 1004.410156 3522.289062 1004.410156 C 3524.679688 1004.410156 3526.609375 1002.46875 3526.609375 1000.089844 C 3526.609375 997.699219 3524.679688 995.769531 3522.289062 995.769531 Z M 3640.550781 825.03125 C 3640.550781 825.03125 3640.148438 770.949219 3620.269531 751.058594 C 3620.269531 751.058594 3583.28125 831.398438 3640.550781 825.03125 Z M 3620.960938 1081.25 L 3649.898438 1016.621094 L 3613.578125 1017.851562 L 3615.421875 1022.78125 L 3587.71875 1086.179688 L 3611.109375 1070.789062 L 3620.960938 1081.25 " />
</svg>