<?xml version="1.0" encoding="UTF-8"?>
<svg width="400" height="400" viewBox="3400 1218 460 460" xmlns="http://www.w3.org/2000/svg">
  <path fill-rule="nonzero" fill="rgb(71.348572%, 11.412048%, 13.85498%)" fill-opacity="1"
    d="M 3821.300781 1508.171875 C 3810.859375 1499.269531 3804.359375 1473.269531 3804.359375 1473.269531 C 3808.539062 1451.261719 3817.921875 1438.128906 3828.921875 1430.488281 C 3829.53125 1436.898438 3829.878906 1443.378906 3829.878906 1449.949219 C 3829.878906 1453.03125 3829.769531 1456.078125 3829.621094 1459.109375 C 3829.730469 1456.699219 3829.800781 1454.28125 3829.820312 1451.839844 C 3825.148438 1462.191406 3825.300781 1471.449219 3825.300781 1471.449219 C 3825.71875 1475.679688 3826.339844 1479.550781 3827.109375 1483.128906 C 3825.691406 1491.671875 3823.75 1500.03125 3821.300781 1508.171875 Z M 3661.808594 1486.859375 C 3656.480469 1492.320312 3649.789062 1494.421875 3646.859375 1491.558594 C 3643.941406 1488.699219 3645.878906 1481.960938 3651.210938 1476.511719 C 3656.53125 1471.050781 3663.230469 1468.949219 3666.160156 1471.820312 C 3669.078125 1474.679688 3667.128906 1481.410156 3661.808594 1486.859375 Z M 3628.390625 1651.429688 C 3517.121094 1651.429688 3426.910156 1561.230469 3426.910156 1449.949219 C 3426.910156 1338.679688 3517.121094 1248.46875 3628.390625 1248.46875 C 3706.800781 1248.46875 3774.671875 1293.300781 3807.96875 1358.679688 C 3728.578125 1356.289062 3651.378906 1406.789062 3651.378906 1406.789062 C 3622.238281 1405.890625 3613.128906 1423.179688 3613.128906 1423.179688 C 3593.101562 1421.371094 3595.839844 1444.140625 3595.839844 1444.140625 C 3548.480469 1493.308594 3555.769531 1561.589844 3555.769531 1561.589844 C 3674.179688 1552.488281 3722.410156 1491.488281 3722.410156 1491.488281 L 3722.410156 1463.351562 C 3718.691406 1464.53125 3714.730469 1465.179688 3710.621094 1465.179688 C 3689.21875 1465.179688 3671.871094 1447.839844 3671.871094 1426.441406 C 3671.871094 1405.039062 3689.21875 1387.699219 3710.621094 1387.699219 C 3732.011719 1387.699219 3749.371094 1405.039062 3749.371094 1426.441406 C 3749.371094 1437.910156 3744.351562 1448.191406 3736.429688 1455.28125 C 3739.300781 1507.710938 3700.550781 1564.328125 3700.550781 1564.328125 C 3681.429688 1593.46875 3715.121094 1579.820312 3715.121094 1579.820312 C 3738.800781 1569.789062 3763.378906 1516.96875 3763.378906 1516.96875 C 3781.789062 1519.101562 3808.980469 1514.070312 3820.191406 1511.730469 C 3794.101562 1592.78125 3718.109375 1651.429688 3628.390625 1651.429688 Z M 3811.949219 1366.898438 C 3810.800781 1364.378906 3809.601562 1361.878906 3808.351562 1359.421875 C 3809.601562 1361.878906 3810.800781 1364.378906 3811.949219 1366.898438 Z M 3628.390625 1226.441406 C 3504.949219 1226.441406 3404.878906 1326.511719 3404.878906 1449.949219 C 3404.878906 1573.398438 3504.949219 1673.46875 3628.390625 1673.46875 C 3751.839844 1673.46875 3851.910156 1573.398438 3851.910156 1449.949219 C 3851.910156 1326.511719 3751.839844 1226.441406 3628.390625 1226.441406 Z M 3586.460938 1573.511719 C 3603.21875 1603.199219 3606.578125 1596.488281 3606.578125 1596.488281 C 3606.101562 1593.628906 3587.890625 1566.800781 3587.890625 1566.800781 C 3583.109375 1563.921875 3586.460938 1573.511719 3586.460938 1573.511719 Z M 3513.421875 1520.390625 C 3513.421875 1520.390625 3506.960938 1524.199219 3537.769531 1538.851562 C 3537.769531 1538.851562 3547.558594 1541.511719 3544.359375 1536.941406 C 3544.359375 1536.941406 3516.320312 1520.660156 3513.421875 1520.390625 Z M 3524.800781 1495.671875 C 3524.800781 1495.671875 3517.390625 1496.800781 3540.480469 1521.898438 C 3540.480469 1521.898438 3548.558594 1528.03125 3547.300781 1522.589844 C 3547.300781 1522.589844 3527.390625 1497.011719 3524.800781 1495.671875 Z M 3667.890625 1546.199219 L 3648.261719 1566.800781 C 3635.800781 1577.820312 3642.980469 1585.96875 3642.980469 1585.96875 C 3649.691406 1593.628906 3660.710938 1586.441406 3660.710938 1586.441406 C 3690.398438 1558.660156 3689.929688 1537.589844 3689.929688 1537.589844 Z M 3602.75 1571.109375 C 3619.511719 1600.808594 3622.871094 1594.101562 3622.871094 1594.101562 C 3622.390625 1591.230469 3604.179688 1564.410156 3604.179688 1564.410156 C 3599.390625 1561.53125 3602.75 1571.109375 3602.75 1571.109375 Z M 3648.921875 1399.371094 L 3648.921875 1393.449219 C 3648.921875 1393.449219 3664.140625 1357.929688 3624.378906 1368.078125 C 3624.378906 1368.078125 3593.929688 1373.988281 3613.390625 1412.898438 C 3613.390625 1412.898438 3626.078125 1395.140625 3648.921875 1399.371094 Z M 3735.78125 1426.441406 C 3735.78125 1412.539062 3724.511719 1401.28125 3710.621094 1401.28125 C 3696.71875 1401.28125 3685.460938 1412.539062 3685.460938 1426.441406 C 3685.460938 1440.328125 3696.71875 1451.601562 3710.621094 1451.601562 C 3724.511719 1451.601562 3735.78125 1440.328125 3735.78125 1426.441406 " />
</svg>